# xmcd CD database file
#
# Track frame offsets:
#	150
#	28140
#	51802
#	79735
#	97047
#	109378
#	143898
#	178719
#	214050
#	225751
#	241939
#	252352
#
# Disc length: 3794 seconds
#
# Revision: 0
# Processed by: cddbd v1.5.2PL0 Copyright (c) Steve Scherf et al.
# Submitted via: CDex 1.51
#
DISCID=a00ed00c
DTITLE=Nenê Trio - Sudeste
DYEAR=2007
DGENRE=Jazz
TTITLE0=Bataclan
TTITLE1=Renascendo
TTITLE2=Choro Novo
TTITLE3=Conversa que dá coco
TTITLE4=Bem que eu te avisei
TTITLE5=Sudeste
TTITLE6=Correndo na frente
TTITLE7=Dança das Baleias
TTITLE8=Aniversário do Arismar
TTITLE9=Juarez
TTITLE10=Velho também é jovem
TTITLE11=Solo de Bateria
EXTD=YEAR: 2007
EXTT0=
EXTT1=
EXTT2=
EXTT3=
EXTT4=
EXTT5=
EXTT6=
EXTT7=
EXTT8=
EXTT9=
EXTT10=
EXTT11=
PLAYORDER=
